<mxfile host="app.diagrams.net" agent="Mozilla/5.0 (Windows NT 10.0; Win64; x64) AppleWebKit/537.36 (KHTML, like Gecko) Chrome/131.0.0.0 Safari/537.36" version="24.8.8">
  <diagram name="Halaman-1" id="ZzuOgXy86mY6U-GXPdbu">
    <mxGraphModel dx="1218" dy="1373" grid="1" gridSize="10" guides="1" tooltips="1" connect="1" arrows="1" fold="1" page="1" pageScale="1" pageWidth="827" pageHeight="1169" math="0" shadow="0">
      <root>
        <mxCell id="0" />
        <mxCell id="1" parent="0" />
        <mxCell id="djej7wyHmqCi-qK7CBhM-28" style="edgeStyle=orthogonalEdgeStyle;rounded=0;orthogonalLoop=1;jettySize=auto;html=1;exitX=0.5;exitY=1;exitDx=0;exitDy=0;entryX=0.5;entryY=0;entryDx=0;entryDy=0;" parent="1" source="djej7wyHmqCi-qK7CBhM-3" target="djej7wyHmqCi-qK7CBhM-5" edge="1">
          <mxGeometry relative="1" as="geometry" />
        </mxCell>
        <mxCell id="djej7wyHmqCi-qK7CBhM-3" value="Start" style="ellipse;whiteSpace=wrap;html=1;" parent="1" vertex="1">
          <mxGeometry x="-780" y="-1140" width="80" height="40" as="geometry" />
        </mxCell>
        <mxCell id="djej7wyHmqCi-qK7CBhM-29" style="edgeStyle=orthogonalEdgeStyle;rounded=0;orthogonalLoop=1;jettySize=auto;html=1;exitX=0.5;exitY=1;exitDx=0;exitDy=0;entryX=0.5;entryY=0;entryDx=0;entryDy=0;" parent="1" source="djej7wyHmqCi-qK7CBhM-5" target="djej7wyHmqCi-qK7CBhM-8" edge="1">
          <mxGeometry relative="1" as="geometry" />
        </mxCell>
        <mxCell id="djej7wyHmqCi-qK7CBhM-5" value="Pilih Menu:&lt;div&gt;&lt;ol&gt;&lt;li&gt;Tambahkan Kelas&lt;/li&gt;&lt;li&gt;Tampilkan Daftar Kelas&lt;/li&gt;&lt;li&gt;Tambahkan Jadwal&lt;/li&gt;&lt;li&gt;Tampilkan Jadwal Kelas&lt;/li&gt;&lt;li style=&quot;&quot;&gt;Hapus Kelas&lt;/li&gt;&lt;li&gt;Hapus Jadwal&lt;/li&gt;&lt;li&gt;Keluar&lt;/li&gt;&lt;/ol&gt;&lt;/div&gt;" style="rounded=0;whiteSpace=wrap;html=1;fontSize=5;align=left;" parent="1" vertex="1">
          <mxGeometry x="-800" y="-1080" width="120" height="60" as="geometry" />
        </mxCell>
        <mxCell id="djej7wyHmqCi-qK7CBhM-30" style="edgeStyle=orthogonalEdgeStyle;rounded=0;orthogonalLoop=1;jettySize=auto;html=1;exitX=0.5;exitY=1;exitDx=0;exitDy=0;entryX=0.5;entryY=0;entryDx=0;entryDy=0;" parent="1" source="djej7wyHmqCi-qK7CBhM-8" target="djej7wyHmqCi-qK7CBhM-9" edge="1">
          <mxGeometry relative="1" as="geometry" />
        </mxCell>
        <mxCell id="KZTs4zh-6Ex-15XiM3WL-1" style="edgeStyle=orthogonalEdgeStyle;rounded=0;orthogonalLoop=1;jettySize=auto;html=1;exitX=1;exitY=0.5;exitDx=0;exitDy=0;" parent="1" source="djej7wyHmqCi-qK7CBhM-8" edge="1">
          <mxGeometry relative="1" as="geometry">
            <mxPoint x="-700" y="-990.0612244897959" as="targetPoint" />
          </mxGeometry>
        </mxCell>
        <mxCell id="djej7wyHmqCi-qK7CBhM-8" value="&lt;font size=&quot;1&quot;&gt;Pilih 1&lt;/font&gt;" style="rhombus;whiteSpace=wrap;html=1;" parent="1" vertex="1">
          <mxGeometry x="-760" y="-1010" width="40" height="40" as="geometry" />
        </mxCell>
        <mxCell id="djej7wyHmqCi-qK7CBhM-31" style="edgeStyle=orthogonalEdgeStyle;rounded=0;orthogonalLoop=1;jettySize=auto;html=1;exitX=0.5;exitY=1;exitDx=0;exitDy=0;entryX=0.5;entryY=0;entryDx=0;entryDy=0;" parent="1" source="djej7wyHmqCi-qK7CBhM-9" target="djej7wyHmqCi-qK7CBhM-10" edge="1">
          <mxGeometry relative="1" as="geometry" />
        </mxCell>
        <mxCell id="djej7wyHmqCi-qK7CBhM-9" value="&lt;font size=&quot;1&quot;&gt;Pilih 2&lt;/font&gt;" style="rhombus;whiteSpace=wrap;html=1;" parent="1" vertex="1">
          <mxGeometry x="-760" y="-960" width="40" height="40" as="geometry" />
        </mxCell>
        <mxCell id="djej7wyHmqCi-qK7CBhM-34" style="edgeStyle=orthogonalEdgeStyle;rounded=0;orthogonalLoop=1;jettySize=auto;html=1;exitX=0.5;exitY=1;exitDx=0;exitDy=0;entryX=0.5;entryY=0;entryDx=0;entryDy=0;" parent="1" source="djej7wyHmqCi-qK7CBhM-10" target="djej7wyHmqCi-qK7CBhM-14" edge="1">
          <mxGeometry relative="1" as="geometry" />
        </mxCell>
        <mxCell id="djej7wyHmqCi-qK7CBhM-10" value="&lt;font size=&quot;1&quot;&gt;Pilih 3&lt;/font&gt;" style="rhombus;whiteSpace=wrap;html=1;" parent="1" vertex="1">
          <mxGeometry x="-760" y="-910" width="40" height="40" as="geometry" />
        </mxCell>
        <mxCell id="djej7wyHmqCi-qK7CBhM-11" value="&lt;font size=&quot;1&quot;&gt;Pilih 7&lt;/font&gt;" style="rhombus;whiteSpace=wrap;html=1;" parent="1" vertex="1">
          <mxGeometry x="-760" y="-710" width="40" height="40" as="geometry" />
        </mxCell>
        <mxCell id="djej7wyHmqCi-qK7CBhM-37" style="edgeStyle=orthogonalEdgeStyle;rounded=0;orthogonalLoop=1;jettySize=auto;html=1;exitX=0.5;exitY=1;exitDx=0;exitDy=0;entryX=0.5;entryY=0;entryDx=0;entryDy=0;" parent="1" source="djej7wyHmqCi-qK7CBhM-12" target="djej7wyHmqCi-qK7CBhM-11" edge="1">
          <mxGeometry relative="1" as="geometry" />
        </mxCell>
        <mxCell id="djej7wyHmqCi-qK7CBhM-12" value="&lt;font size=&quot;1&quot;&gt;Pilih 6&lt;/font&gt;" style="rhombus;whiteSpace=wrap;html=1;" parent="1" vertex="1">
          <mxGeometry x="-760" y="-760" width="40" height="40" as="geometry" />
        </mxCell>
        <mxCell id="djej7wyHmqCi-qK7CBhM-36" style="edgeStyle=orthogonalEdgeStyle;rounded=0;orthogonalLoop=1;jettySize=auto;html=1;exitX=0.5;exitY=1;exitDx=0;exitDy=0;entryX=0.5;entryY=0;entryDx=0;entryDy=0;" parent="1" source="djej7wyHmqCi-qK7CBhM-13" target="djej7wyHmqCi-qK7CBhM-12" edge="1">
          <mxGeometry relative="1" as="geometry" />
        </mxCell>
        <mxCell id="djej7wyHmqCi-qK7CBhM-13" value="&lt;font size=&quot;1&quot;&gt;Pilih 5&lt;/font&gt;" style="rhombus;whiteSpace=wrap;html=1;" parent="1" vertex="1">
          <mxGeometry x="-760" y="-810" width="40" height="40" as="geometry" />
        </mxCell>
        <mxCell id="djej7wyHmqCi-qK7CBhM-35" style="edgeStyle=orthogonalEdgeStyle;rounded=0;orthogonalLoop=1;jettySize=auto;html=1;exitX=0.5;exitY=1;exitDx=0;exitDy=0;entryX=0.5;entryY=0;entryDx=0;entryDy=0;" parent="1" source="djej7wyHmqCi-qK7CBhM-14" target="djej7wyHmqCi-qK7CBhM-13" edge="1">
          <mxGeometry relative="1" as="geometry" />
        </mxCell>
        <mxCell id="djej7wyHmqCi-qK7CBhM-14" value="&lt;font size=&quot;1&quot;&gt;Pilih 4&lt;/font&gt;" style="rhombus;whiteSpace=wrap;html=1;" parent="1" vertex="1">
          <mxGeometry x="-760" y="-860" width="40" height="40" as="geometry" />
        </mxCell>
        <mxCell id="djej7wyHmqCi-qK7CBhM-38" value="&lt;font style=&quot;font-size: 5px;&quot;&gt;NO&lt;/font&gt;" style="text;html=1;align=center;verticalAlign=middle;whiteSpace=wrap;rounded=0;fontStyle=1" parent="1" vertex="1">
          <mxGeometry x="-760" y="-1020" width="10" height="10" as="geometry" />
        </mxCell>
        <mxCell id="djej7wyHmqCi-qK7CBhM-43" value="&lt;font style=&quot;font-size: 5px;&quot;&gt;NO&lt;/font&gt;" style="text;html=1;align=center;verticalAlign=middle;whiteSpace=wrap;rounded=0;fontStyle=1" parent="1" vertex="1">
          <mxGeometry x="-760" y="-970" width="10" height="10" as="geometry" />
        </mxCell>
        <mxCell id="djej7wyHmqCi-qK7CBhM-44" value="&lt;span style=&quot;font-size: 5px;&quot;&gt;YA&lt;/span&gt;" style="text;html=1;align=center;verticalAlign=middle;whiteSpace=wrap;rounded=0;fontStyle=1" parent="1" vertex="1">
          <mxGeometry x="-720" y="-1000" width="10" height="10" as="geometry" />
        </mxCell>
        <mxCell id="djej7wyHmqCi-qK7CBhM-46" value="&lt;font style=&quot;font-size: 5px;&quot;&gt;NO&lt;/font&gt;" style="text;html=1;align=center;verticalAlign=middle;whiteSpace=wrap;rounded=0;fontStyle=1" parent="1" vertex="1">
          <mxGeometry x="-760" y="-920" width="10" height="10" as="geometry" />
        </mxCell>
        <mxCell id="djej7wyHmqCi-qK7CBhM-47" value="&lt;font style=&quot;font-size: 5px;&quot;&gt;NO&lt;/font&gt;" style="text;html=1;align=center;verticalAlign=middle;whiteSpace=wrap;rounded=0;fontStyle=1" parent="1" vertex="1">
          <mxGeometry x="-760" y="-870" width="10" height="10" as="geometry" />
        </mxCell>
        <mxCell id="djej7wyHmqCi-qK7CBhM-48" value="&lt;font style=&quot;font-size: 5px;&quot;&gt;NO&lt;/font&gt;" style="text;html=1;align=center;verticalAlign=middle;whiteSpace=wrap;rounded=0;fontStyle=1" parent="1" vertex="1">
          <mxGeometry x="-760" y="-720" width="10" height="10" as="geometry" />
        </mxCell>
        <mxCell id="djej7wyHmqCi-qK7CBhM-49" value="&lt;font style=&quot;font-size: 5px;&quot;&gt;NO&lt;/font&gt;" style="text;html=1;align=center;verticalAlign=middle;whiteSpace=wrap;rounded=0;fontStyle=1" parent="1" vertex="1">
          <mxGeometry x="-760" y="-770" width="10" height="10" as="geometry" />
        </mxCell>
        <mxCell id="djej7wyHmqCi-qK7CBhM-50" value="&lt;font style=&quot;font-size: 5px;&quot;&gt;NO&lt;/font&gt;" style="text;html=1;align=center;verticalAlign=middle;whiteSpace=wrap;rounded=0;fontStyle=1" parent="1" vertex="1">
          <mxGeometry x="-760" y="-820" width="10" height="10" as="geometry" />
        </mxCell>
        <mxCell id="ZhfZ8Pp_Iqzfekh8P1Lw-2" value="&lt;font style=&quot;font-size: 4px;&quot;&gt;Masukkan nama kelas dan lokasi kelas&lt;/font&gt;" style="shape=parallelogram;perimeter=parallelogramPerimeter;whiteSpace=wrap;html=1;fixedSize=1;rounded=0;align=center;" vertex="1" parent="1">
          <mxGeometry x="-700" y="-1005" width="90" height="30" as="geometry" />
        </mxCell>
      </root>
    </mxGraphModel>
  </diagram>
</mxfile>
